<svg width="17" height="17" viewBox="0 0 17 17" fill="none" xmlns="http://www.w3.org/2000/svg">
<path d="M1.66684 0C1.11455 0 0.66684 0.447715 0.66684 1C0.66684 1.55228 1.11455 2 1.66684 2H2.88606L3.19162 3.22224C3.19483 3.23637 3.19834 3.25039 3.20214 3.26429L4.55937 8.69321L3.66679 9.58578C2.40686 10.8457 3.29919 13 5.081 13H13.6668C14.2191 13 14.6668 12.5523 14.6668 12C14.6668 11.4477 14.2191 11 13.6668 11L5.08101 11L6.081 10H12.6668C13.0456 10 13.3919 9.786 13.5613 9.44721L16.5613 3.44721C16.7163 3.13723 16.6997 2.76909 16.5175 2.47427C16.3353 2.17945 16.0134 2 15.6668 2H4.94762L4.63698 0.757464C4.52569 0.312297 4.12571 0 3.66684 0H1.66684Z" fill="#111827"/>
<path d="M14.6668 15.5C14.6668 16.3284 13.9953 17 13.1668 17C12.3384 17 11.6668 16.3284 11.6668 15.5C11.6668 14.6716 12.3384 14 13.1668 14C13.9953 14 14.6668 14.6716 14.6668 15.5Z" fill="#111827"/>
<path d="M5.16684 17C5.99527 17 6.66684 16.3284 6.66684 15.5C6.66684 14.6716 5.99527 14 5.16684 14C4.33841 14 3.66684 14.6716 3.66684 15.5C3.66684 16.3284 4.33841 17 5.16684 17Z" fill="#111827"/>
</svg>
