<svg width="15" height="14" viewBox="0 0 15 14" fill="none" xmlns="http://www.w3.org/2000/svg">
<path d="M2.66684 0C1.56227 0 0.66684 0.89543 0.66684 2V4C0.66684 5.10457 1.56227 6 2.66684 6H4.66684C5.77141 6 6.66684 5.10457 6.66684 4V2C6.66684 0.895431 5.77141 0 4.66684 0H2.66684Z" fill="#111827"/>
<path d="M2.66684 8C1.56227 8 0.66684 8.89543 0.66684 10V12C0.66684 13.1046 1.56227 14 2.66684 14H4.66684C5.77141 14 6.66684 13.1046 6.66684 12V10C6.66684 8.89543 5.77141 8 4.66684 8H2.66684Z" fill="#111827"/>
<path d="M8.66684 2C8.66684 0.89543 9.56227 0 10.6668 0H12.6668C13.7714 0 14.6668 0.895431 14.6668 2V4C14.6668 5.10457 13.7714 6 12.6668 6H10.6668C9.56227 6 8.66684 5.10457 8.66684 4V2Z" fill="#111827"/>
<path d="M11.6668 8C12.2191 8 12.6668 8.44771 12.6668 9V10H13.6668C14.2191 10 14.6668 10.4477 14.6668 11C14.6668 11.5523 14.2191 12 13.6668 12H12.6668V13C12.6668 13.5523 12.2191 14 11.6668 14C11.1146 14 10.6668 13.5523 10.6668 13V12H9.66684C9.11455 12 8.66684 11.5523 8.66684 11C8.66684 10.4477 9.11456 10 9.66684 10H10.6668V9C10.6668 8.44771 11.1146 8 11.6668 8Z" fill="#111827"/>
</svg>
