<svg width="17" height="16" viewBox="0 0 17 16" fill="none" xmlns="http://www.w3.org/2000/svg">
<path d="M9.37382 0.292893C8.9833 -0.0976311 8.35013 -0.0976311 7.95961 0.292893L0.959611 7.29289C0.569086 7.68342 0.569086 8.31658 0.959611 8.70711C1.35014 9.09763 1.9833 9.09763 2.37382 8.70711L2.66672 8.41421V15C2.66672 15.5523 3.11443 16 3.66672 16H5.66672C6.219 16 6.66672 15.5523 6.66672 15V13C6.66672 12.4477 7.11443 12 7.66672 12H9.66672C10.219 12 10.6667 12.4477 10.6667 13V15C10.6667 15.5523 11.1144 16 11.6667 16H13.6667C14.219 16 14.6667 15.5523 14.6667 15V8.41421L14.9596 8.70711C15.3501 9.09763 15.9833 9.09763 16.3738 8.70711C16.7643 8.31658 16.7643 7.68342 16.3738 7.29289L9.37382 0.292893Z" fill="#111827"/>
</svg>
