<svg width="22" height="18" viewBox="0 0 22 18" fill="none" xmlns="http://www.w3.org/2000/svg">
<path fill-rule="evenodd" clip-rule="evenodd" d="M0.5 1.5C0.5 0.671573 1.17157 0 2 0H20C20.8284 0 21.5 0.671573 21.5 1.5C21.5 2.32843 20.8284 3 20 3H2C1.17157 3 0.5 2.32843 0.5 1.5Z" fill="#425486"/>
<path fill-rule="evenodd" clip-rule="evenodd" d="M0.5 9C0.5 8.17157 1.17157 7.5 2 7.5H20C20.8284 7.5 21.5 8.17157 21.5 9C21.5 9.82843 20.8284 10.5 20 10.5H2C1.17157 10.5 0.5 9.82843 0.5 9Z" fill="#425486"/>
<path fill-rule="evenodd" clip-rule="evenodd" d="M0.5 16.5C0.5 15.6716 1.17157 15 2 15H20C20.8284 15 21.5 15.6716 21.5 16.5C21.5 17.3284 20.8284 18 20 18H2C1.17157 18 0.5 17.3284 0.5 16.5Z" fill="#425486"/>
</svg>
